<?xml version="1.0" encoding="UTF-8"?>
<svg id="Layer_1" xmlns="http://www.w3.org/2000/svg" version="1.1" viewBox="0 0 1482.1 272.98">
  <!-- Generator: Adobe Illustrator 30.0.0, SVG Export Plug-In . SVG Version: 2.1.1 Build 123)  -->
  <defs>
    <style>
      .st0 {
        stroke-width: .4px;
      }

      .st0, .st1, .st2, .st3, .st4, .st5, .st6, .st7, .st8, .st9, .st10 {
        fill: none;
        stroke: #45c752;
        stroke-linecap: round;
        stroke-linejoin: round;
      }

      .st1 {
        stroke-width: 1.12px;
      }

      .st2 {
        stroke-width: 2.99px;
      }

      .st3 {
        stroke-width: 2.98px;
      }

      .st4 {
        stroke-width: 4.11px;
      }

      .st5 {
        stroke-width: .75px;
      }

      .st6 {
        stroke-width: .37px;
      }

      .st7 {
        stroke-width: .75px;
      }

      .st8 {
        stroke-width: 3.73px;
      }

      .st9 {
        stroke-width: 1.49px;
      }

      .st10 {
        stroke-width: .37px;
      }
    </style>
  </defs>
  <path class="st1" d="M835.84,98.49l39.85-12.75c6.04-1.93,12.29-2.9,18.54-2.9M582.83,82.85c6.25,0,12.51.97,18.54,2.9l118.62,37.95c12.07,3.86,25.01,3.86,37.09,0l54.06-17.29"/>
  <g>
    <path class="st5" d="M720.01,87.69c12.06,3.83,24.98,3.83,37.04,0l118.47-37.61c6.03-1.91,12.28-2.87,18.52-2.87M583.02,47.21c6.25,0,12.49.96,18.52,2.87l88.39,28.06"/>
    <path class="st0" d="M864.73,17.56l10.62-3.35c6.02-1.9,12.26-2.85,18.5-2.85M583.2,11.36c6.24,0,12.47.95,18.5,2.85l118.33,37.3c12.05,3.8,24.95,3.8,37,0l88.29-27.83"/>
  </g>
  <line class="st5" x1="981.06" y1="47.15" x2="892.87" y2="47.15"/>
  <line class="st10" x1="1056.12" y1="11.38" x2="893.89" y2="11.38"/>
  <line class="st5" x1="1181.61" y1="47.12" x2="1018.85" y2="47.12"/>
  <g>
    <line class="st10" x1="1182.23" y1="11.38" x2="1109.85" y2="11.38"/>
    <path class="st8" d="M5.58,189.59c6.95,0,13.9,1.82,20.29,5.46l32.01,18.25c12.77,7.28,27.81,7.28,40.58,0l32.01-18.25c12.77-7.28,27.8-7.28,40.58,0l32.01,18.25c12.77,7.28,27.81,7.28,40.58,0l32.01-18.25c6.38-3.64,13.34-5.46,20.29-5.46"/>
    <path class="st4" d="M5.37,225.39c6.96,0,13.92,1.85,20.32,5.54l32.05,18.51c12.79,7.39,27.85,7.39,40.63,0l32.06-18.51c12.79-7.38,27.84-7.38,40.63,0l32.06,18.51c12.79,7.39,27.84,7.39,40.63,0l32.06-18.51c6.39-3.69,13.36-5.54,20.32-5.54"/>
    <path class="st3" d="M5.97,153.82c6.93,0,13.86,1.77,20.23,5.32l31.92,17.76c12.74,7.09,27.73,7.09,40.47,0l31.92-17.76c12.74-7.09,27.73-7.09,40.47,0l31.92,17.76c12.74,7.09,27.73,7.09,40.47,0l31.92-17.76c6.37-3.54,13.3-5.32,20.23-5.32"/>
    <path class="st9" d="M123.76,127.31l6.87-3.63c12.67-6.69,27.58-6.69,40.25,0l31.75,16.77c12.67,6.69,27.58,6.69,40.25,0l31.75-16.77c6.34-3.35,13.23-5.02,20.12-5.02M6.76,118.65c6.89,0,13.79,1.67,20.12,5.02l31.75,16.77c12.67,6.69,27.58,6.69,40.24,0"/>
  </g>
  <path class="st1" d="M242.75,104.37l31.71-16.52c6.33-3.3,13.21-4.95,20.1-4.95M6.96,82.9c6.89,0,13.77,1.65,20.1,4.95l31.7,16.52c12.65,6.6,27.54,6.6,40.19,0l31.7-16.52c12.65-6.6,27.54-6.6,40.19,0l31.7,16.52"/>
  <g>
    <path class="st7" d="M99.02,68.29l31.66-16.28c12.63-6.5,27.5-6.5,40.13,0l31.66,16.28c12.63,6.49,27.5,6.49,40.14,0l31.66-16.28c6.32-3.25,13.19-4.87,20.07-4.87M7.16,47.14c6.87,0,13.75,1.62,20.07,4.87l31.66,16.28c4.73,2.43,9.78,3.96,14.9,4.56"/>
    <path class="st6" d="M274.11,16.17c6.31-3.2,13.17-4.8,20.04-4.8M7.36,11.38c6.87,0,13.73,1.6,20.04,4.8l31.62,16.03c12.61,6.4,27.46,6.4,40.08,0l31.62-16.03c12.62-6.4,27.47-6.4,40.08,0l31.62,16.03c12.62,6.4,27.46,6.4,40.08,0l13.04-6.61"/>
    <path class="st8" d="M295.03,189.59c6.95,0,13.9,1.82,20.29,5.46l32.01,18.25c12.77,7.28,27.81,7.28,40.58,0l32.01-18.25c12.77-7.28,27.8-7.28,40.58,0l32.01,18.25c12.77,7.28,27.81,7.28,40.58,0l32.01-18.25c6.39-3.64,13.34-5.46,20.29-5.46"/>
    <path class="st4" d="M294.82,225.39c6.96,0,13.92,1.85,20.32,5.54l32.05,18.51c12.79,7.39,27.85,7.39,40.64,0l32.06-18.51c12.79-7.38,27.84-7.38,40.63,0l32.06,18.51c12.79,7.39,27.84,7.39,40.63,0l32.06-18.51c6.39-3.69,13.36-5.54,20.32-5.54"/>
  </g>
  <g>
    <path class="st3" d="M295.42,153.82c6.93,0,13.86,1.77,20.23,5.32l31.92,17.76c12.74,7.09,27.73,7.09,40.47,0l31.92-17.76c12.74-7.09,27.73-7.09,40.47,0l31.92,17.76c12.74,7.09,27.73,7.09,40.47,0l31.92-17.76c6.37-3.54,13.3-5.32,20.23-5.32"/>
    <path class="st9" d="M413.21,127.31l6.88-3.63c12.67-6.69,27.58-6.69,40.25,0l31.75,16.77c12.67,6.69,27.58,6.69,40.25,0l31.75-16.77c6.33-3.35,13.23-5.02,20.12-5.02M296.21,118.65c6.89,0,13.79,1.67,20.12,5.02l31.75,16.77c12.67,6.69,27.58,6.69,40.24,0"/>
    <path class="st1" d="M532.2,104.37l31.71-16.52c6.33-3.3,13.21-4.95,20.1-4.95M296.41,82.9c6.89,0,13.77,1.65,20.1,4.95l31.7,16.52c12.65,6.6,27.54,6.6,40.19,0l31.7-16.52c12.65-6.6,27.54-6.6,40.19,0l31.71,16.52"/>
  </g>
  <g>
    <path class="st7" d="M388.47,68.29l31.66-16.28c12.63-6.5,27.5-6.5,40.14,0l31.66,16.28c12.63,6.49,27.5,6.49,40.14,0l31.66-16.28c6.32-3.25,13.19-4.87,20.07-4.87M296.61,47.14c6.88,0,13.75,1.62,20.07,4.87l31.66,16.28c4.73,2.43,9.78,3.96,14.9,4.56"/>
    <path class="st6" d="M563.56,16.17c6.31-3.2,13.17-4.8,20.04-4.8M296.81,11.38c6.87,0,13.73,1.6,20.04,4.8l31.61,16.03c12.62,6.4,27.47,6.4,40.08,0l31.62-16.03c12.62-6.4,27.46-6.4,40.08,0l31.62,16.03c12.62,6.4,27.46,6.4,40.08,0l13.04-6.61"/>
  </g>
  <line class="st8" x1="1187.41" y1="189.53" x2="895.51" y2="189.53"/>
  <line class="st4" x1="1186.03" y1="225.31" x2="893.7" y2="225.31"/>
  <line class="st2" x1="1184.64" y1="153.78" x2="893.5" y2="153.78"/>
  <path class="st9" d="M1182.4,118.64h-217.15M929.06,118.64h-36.19"/>
  <path class="st1" d="M1057.05,82.89h-162.55M1183.64,82.89h-108.56"/>
  <line class="st5" x1="1269.04" y1="47.15" x2="1180.85" y2="47.15"/>
  <path class="st10" d="M1344.11,11.38h-162.24M1482.1,11.38h-104.01"/>
  <line class="st5" x1="1482.1" y1="47.12" x2="1306.82" y2="47.12"/>
  <g>
    <line class="st8" x1="1482.06" y1="189.53" x2="1187.5" y2="189.53"/>
    <line class="st4" x1="1482.06" y1="225.31" x2="1189.73" y2="225.31"/>
    <line class="st2" x1="1482.07" y1="153.78" x2="1184.71" y2="153.78"/>
  </g>
  <path class="st9" d="M1482.09,118.64h-227.27M1218.63,118.64h-36.19"/>
  <path class="st1" d="M1372.39,82.89h-162.55M1482.09,82.89h-72.42"/>
  <g>
    <path class="st9" d="M627.99,130.33l91.97,29.65c12.09,3.9,25.04,3.9,37.14,0l118.76-38.29c6.05-1.95,12.31-2.92,18.57-2.92M582.63,118.77c6.26,0,12.52.97,18.57,2.92"/>
    <path class="st2" d="M581.84,153.82c6.29,0,12.58,1.01,18.66,3.03l119.37,39.66c12.15,4.04,25.17,4.04,37.32,0l119.37-39.66c6.07-2.02,12.37-3.03,18.66-3.03"/>
  </g>
  <g>
    <path class="st8" d="M581.45,189.59c6.31,0,12.61,1.03,18.71,3.08l119.66,40.33c12.18,4.11,25.23,4.11,37.41,0l119.66-40.33c6.09-2.05,12.4-3.08,18.71-3.08"/>
    <path class="st4" d="M581.25,225.39c6.32,0,12.63,1.04,18.73,3.11l119.82,40.69c12.2,4.14,25.27,4.14,37.46,0l119.82-40.69c6.1-2.07,12.41-3.11,18.73-3.11"/>
  </g>
</svg>